<?xml version="1.0" standalone="no"?>
<!DOCTYPE svg PUBLIC "-//W3C//DTD SVG 20010904//EN"
 "http://www.w3.org/TR/2001/REC-SVG-20010904/DTD/svg10.dtd">
<svg version="1.0" xmlns="http://www.w3.org/2000/svg"
 width="225.000000pt" height="225.000000pt" viewBox="0 0 225.000000 225.000000"
 preserveAspectRatio="xMidYMid meet">

<g transform="translate(0.000000,225.000000) scale(0.100000,-0.100000)"
fill="#000000" stroke="none">
<path d="M1025 2244 c-296 -45 -535 -169 -714 -370 -63 -71 -156 -217 -191
-301 -107 -255 -119 -549 -34 -802 130 -386 456 -672 851 -747 118 -22 322
-22 434 1 411 84 747 391 858 786 19 67 21 101 21 315 0 281 -8 322 -95 499
-64 130 -126 215 -230 314 -206 195 -454 299 -735 306 -74 2 -148 1 -165 -1z
m295 -65 c702 -112 1098 -870 791 -1514 -256 -537 -900 -757 -1436 -490 -278
138 -480 385 -555 681 -156 610 239 1219 859 1324 69 12 267 11 341 -1z"/>
<path d="M1039 2150 c-162 -18 -311 -71 -448 -160 -523 -339 -625 -1061 -218
-1539 119 -139 308 -259 502 -317 83 -25 104 -28 270 -28 217 -1 288 14 460
99 269 133 464 371 542 660 23 89 26 118 26 260 0 141 -3 172 -26 260 -86 324
-329 594 -636 706 -149 54 -323 76 -472 59z m91 -105 c0 -8 -4 -15 -9 -15 -6
0 -11 -21 -13 -47 -4 -59 -22 -63 -26 -7 -2 32 -8 43 -23 47 -28 7 -23 25 9
30 53 8 62 7 62 -8z m74 -48 c1 -54 0 -57 -24 -57 -24 0 -25 2 -23 57 1 32 2
59 2 61 1 2 11 2 23 0 19 -3 22 -9 22 -61z m121 28 c30 -29 31 -46 8 -73 -45
-52 -124 -13 -107 53 6 25 31 43 62 44 7 1 24 -10 37 -24z m-301 -34 c20 -27
36 -52 36 -56 0 -4 -13 -5 -29 -2 -17 4 -36 0 -47 -8 -31 -24 -47 -19 -40 13
20 79 28 102 36 102 4 0 24 -22 44 -49z m421 -12 c3 12 13 21 22 21 18 0 14
-33 -10 -91 l-14 -34 -21 40 -20 40 -11 -27 c-7 -19 -15 -26 -26 -22 -8 3 -15
7 -15 9 0 2 24 73 36 105 4 11 12 4 29 -24 21 -35 24 -36 30 -17z m-531 -9
c21 -58 17 -68 -19 -52 -35 16 -37 15 -33 -10 2 -14 -3 -24 -12 -26 -11 -2
-21 13 -33 50 -9 28 -14 54 -12 57 3 2 21 -3 40 -12 l34 -16 -6 29 c-10 51 21
36 41 -20z m-143 -20 c10 -6 19 -21 19 -34 0 -13 7 -26 15 -30 30 -11 16 -28
-19 -22 -31 6 -34 5 -29 -14 11 -40 -24 -20 -51 29 l-27 50 28 15 c34 18 39
19 64 6z m799 -55 c0 -69 -13 -84 -38 -45 -8 13 -23 20 -42 20 -17 0 -30 3
-30 8 0 11 83 81 98 82 8 0 12 -20 12 -65z m-910 2 c0 -7 -6 -19 -12 -26 -11
-11 -10 -13 5 -7 29 10 40 -4 20 -26 -17 -19 -17 -19 9 -13 35 9 44 -9 13 -29
-35 -23 -40 -21 -75 27 l-31 42 28 22 c32 26 43 29 43 10z m1000 7 c0 -4 -10
-22 -22 -42 -21 -34 -21 -35 -3 -48 14 -10 16 -17 8 -25 -13 -13 -63 15 -63
35 0 20 50 86 65 86 8 0 15 -3 15 -6z m-1084 -77 c-4 -17 1 -30 19 -47 14 -13
25 -29 25 -37 0 -23 -29 -14 -51 17 -12 16 -26 27 -31 24 -5 -3 -17 -3 -26 1
-14 5 -11 11 18 35 43 36 54 37 46 7z m1184 -52 c-16 -17 -30 -34 -30 -38 0
-15 25 -6 51 19 39 37 56 21 23 -21 -33 -43 -59 -52 -85 -29 -27 25 -24 53 13
91 25 25 34 30 45 21 11 -9 8 -17 -17 -43z m-382 -55 c35 -39 62 -76 59 -83
-5 -11 -193 -221 -299 -334 l-50 -53 -135 0 -135 0 28 33 c64 76 458 507 463
507 3 0 35 -32 69 -70z m-851 14 c24 -19 41 -40 38 -45 -4 -5 -22 -9 -42 -9
-36 0 -36 0 -18 -20 14 -16 16 -23 7 -32 -9 -9 -21 -3 -52 27 -22 21 -40 43
-40 47 0 4 16 8 35 8 39 0 43 7 18 25 -14 11 -12 35 4 35 3 0 26 -16 50 -36z
m524 -23 c23 -23 29 -38 29 -71 0 -91 -106 -135 -171 -71 -64 65 -20 171 71
171 33 0 48 -6 71 -29z m810 -27 c-2 -33 -2 -34 18 -22 14 9 24 9 31 2 8 -8
-3 -22 -37 -48 l-48 -38 -5 44 c-3 27 -8 38 -13 31 -11 -17 -37 -16 -37 1 0
16 80 79 89 70 3 -3 4 -21 2 -40z m-1431 -44 c18 -19 34 -28 44 -24 21 8 21
-16 1 -42 -15 -19 -16 -18 -36 9 -12 16 -30 27 -45 27 -26 0 -30 11 -14 41 14
25 17 24 50 -11z m1170 -171 c0 -4 -43 -55 -96 -113 l-96 -106 -135 0 c-74 0
-133 4 -131 8 2 4 75 88 163 186 l160 177 68 -72 c37 -40 67 -76 67 -80z m350
131 c13 -24 5 -41 -15 -34 -8 3 -26 -7 -41 -23 l-26 -28 -19 24 c-19 23 -17
43 4 39 22 -4 57 13 57 28 0 21 28 17 40 -6z m-1082 -89 c34 -38 62 -75 62
-81 0 -6 -35 -49 -77 -96 l-78 -84 -133 0 c-74 0 -132 4 -130 9 4 12 282 321
288 321 3 0 33 -31 68 -69z m1112 29 c0 -10 -9 -24 -20 -30 -28 -15 -25 -32 5
-24 25 6 55 -9 55 -27 0 -5 -29 -9 -65 -9 -39 0 -65 4 -65 11 0 13 71 99 82
99 4 0 8 -9 8 -20z m-1580 -20 c24 -24 25 -48 4 -78 -34 -48 -123 -11 -109 46
4 15 11 33 17 39 16 20 66 15 88 -7z m1313 -165 c42 -47 77 -90 77 -95 0 -6
-66 -10 -165 -10 -111 0 -165 4 -165 11 0 14 152 179 165 179 6 0 45 -38 88
-85z m322 63 c11 -29 9 -61 -2 -65 -7 -3 -13 2 -13 11 0 8 -5 18 -11 22 -8 4
-9 0 -4 -15 8 -26 -19 -29 -34 -3 -9 14 -10 13 -11 -10 0 -18 -5 -28 -15 -28
-14 0 -17 9 -19 57 -1 11 13 20 39 29 53 16 65 16 70 2z m-1683 -25 c39 -35
11 -103 -43 -103 -35 0 -59 24 -59 57 0 55 62 83 102 46z m1712 -89 c18 -46
-9 -88 -49 -78 -12 3 -26 1 -29 -5 -4 -6 -11 -11 -17 -11 -12 0 -12 37 1 45
16 10 12 25 -5 19 -8 -4 -15 -1 -15 5 0 6 0 14 -1 19 0 9 37 20 77 21 21 1 34
-5 38 -15z m-1804 -39 c0 -9 9 -15 23 -15 39 0 67 -12 67 -28 0 -12 -9 -14
-45 -9 -36 5 -46 3 -54 -11 -15 -26 -29 -3 -24 41 5 36 33 55 33 22z m1736
-97 l-6 -33 15 33 c20 42 61 46 71 5 7 -28 -7 -62 -22 -53 -5 3 -8 16 -6 28 2
15 -1 21 -7 17 -6 -3 -11 -15 -11 -25 0 -11 -9 -24 -19 -30 -26 -13 -51 11
-51 49 0 31 7 41 27 41 11 0 13 -8 9 -32z m-1696 -3 c0 -14 -4 -25 -10 -25 -5
0 -10 11 -10 25 0 14 5 25 10 25 6 0 10 -11 10 -25z m198 -77 c-2 -40 -7 -73
-13 -73 -5 0 -11 33 -13 73 -2 60 0 72 13 72 13 0 15 -12 13 -72z m130 55 c2
-8 -5 -13 -17 -13 -19 0 -21 -6 -21 -53 0 -58 -4 -68 -26 -60 -10 3 -14 22
-14 59 0 47 -2 54 -20 54 -20 0 -26 11 -13 24 12 12 106 2 111 -11z m151 -1
c6 -11 6 -24 0 -33 -14 -22 -11 -29 12 -29 16 0 19 -4 14 -20 -4 -13 -2 -20 6
-20 10 0 10 -3 2 -11 -16 -16 -81 -21 -104 -8 -21 11 -26 54 -8 65 6 3 9 14 6
24 -11 43 51 71 72 32z m203 4 c8 -8 14 -35 13 -67 l0 -54 -57 -3 -58 -3 0 64
c0 35 3 67 7 70 12 12 81 7 95 -7z m68 -35 c0 -32 5 -53 15 -61 23 -19 33 -3
37 55 2 36 7 50 18 50 11 0 16 -14 18 -52 2 -42 -1 -56 -17 -72 -47 -47 -101
-10 -101 67 0 27 3 52 7 55 16 17 23 4 23 -42z m198 37 c17 -17 15 -38 -3 -38
-8 0 -15 5 -15 10 0 6 -9 10 -20 10 -29 0 -24 -17 7 -25 56 -14 71 -51 31 -79
-30 -22 -54 -20 -79 5 -28 28 -9 51 20 25 12 -11 27 -16 37 -12 20 8 16 12
-28 34 -18 10 -35 26 -37 36 -6 36 59 62 87 34z m70 -60 c-2 -40 -7 -73 -13
-73 -5 0 -11 33 -13 73 -2 60 0 72 13 72 13 0 15 -12 13 -72z m74 35 l23 -38
5 34 c3 19 11 36 18 39 10 3 12 -13 10 -70 -2 -40 -7 -73 -13 -72 -5 0 -21 18
-35 39 l-25 38 -5 -37 c-9 -63 -25 -45 -28 32 -3 85 12 96 50 35z m196 20 c2
-9 -9 -13 -37 -13 -30 0 -41 -4 -41 -15 0 -11 11 -15 36 -15 45 0 42 -24 -4
-28 -50 -5 -42 -32 9 -32 26 0 39 -4 37 -11 -2 -7 -25 -12 -53 -12 l-50 0 -3
72 -3 72 52 -3 c31 -2 54 -8 57 -15z m103 7 c10 -6 19 -17 19 -25 0 -17 -26
-20 -35 -5 -7 12 -35 13 -35 2 0 -4 15 -14 34 -20 39 -14 51 -35 36 -63 -15
-27 -55 -34 -85 -15 -27 18 -31 31 -13 42 6 4 16 0 23 -9 14 -20 45 -23 45 -4
0 7 -15 19 -34 25 -41 15 -50 33 -30 61 16 23 44 27 75 11z m133 -6 c9 -8 16
-20 16 -25 0 -12 -27 -12 -35 1 -7 12 -35 13 -35 2 0 -5 15 -15 33 -23 26 -11
32 -20 32 -44 0 -40 -41 -56 -79 -31 -26 17 -35 46 -15 46 7 0 17 -7 24 -17 7
-9 19 -14 29 -10 25 10 19 25 -14 32 -25 6 -50 30 -50 49 0 13 34 36 55 36 13
0 31 -7 39 -16z m-1487 -64 c0 -33 -1 -60 -3 -60 -13 0 -114 45 -114 51 0 7
95 65 111 68 3 0 6 -26 6 -59z m1649 9 c4 -7 23 -9 50 -5 42 5 44 4 44 -19 0
-29 -16 -41 -35 -25 -9 8 -28 10 -50 6 -34 -7 -35 -6 -35 24 0 30 13 40 26 19z
m84 -104 c0 -13 -3 -30 -6 -39 -8 -20 -34 -21 -34 -2 0 9 -15 17 -40 21 -27 4
-40 12 -40 22 0 13 8 15 44 10 34 -5 45 -3 50 9 8 22 26 7 26 -21z m-1720 13
c0 -7 3 -23 6 -34 6 -24 -2 -29 -70 -39 -37 -6 -46 -4 -46 8 0 17 21 27 56 27
19 0 24 5 24 25 0 16 6 25 15 25 8 0 15 -6 15 -12z m16 -103 c-4 -14 1 -30 14
-45 11 -13 20 -25 20 -27 0 -7 -106 -2 -120 7 -12 8 -7 17 29 54 46 47 67 51
57 11z m358 -57 c18 -40 47 -95 64 -123 l31 -49 -57 -24 -57 -23 -65 68 c-62
65 -147 203 -133 217 3 3 46 6 95 6 l89 0 33 -72z m406 -22 l0 -94 -67 -7
c-38 -3 -99 -13 -137 -22 l-69 -15 -18 23 c-26 34 -99 178 -99 195 0 12 33 14
195 14 l195 0 0 -94z m430 78 c0 -20 -89 -190 -107 -205 -8 -8 -32 -6 -80 5
-37 8 -98 18 -135 22 l-68 7 0 93 0 94 195 0 c174 0 195 -2 195 -16z m240 11
c0 -20 -72 -142 -116 -197 -72 -89 -79 -92 -143 -66 -28 12 -51 26 -51 31 0 5
9 22 21 38 11 16 38 67 60 114 l40 85 94 0 c52 0 95 -2 95 -5z m250 -11 c0 -9
-9 -18 -20 -21 -23 -6 -25 -14 -9 -30 7 -7 9 -19 5 -29 -6 -15 -12 -12 -40 19
-19 21 -41 37 -51 37 -9 0 -15 6 -13 13 3 7 23 12 51 12 25 0 49 4 53 8 12 12
24 8 24 -9z m-1575 -148 c10 -30 1 -52 -29 -70 -13 -9 -20 -7 -32 8 -21 29
-17 63 8 80 29 20 41 16 53 -18z m1407 17 c21 -19 23 -52 5 -77 -12 -16 -16
-17 -36 -5 -27 17 -36 50 -21 78 13 25 27 27 52 4z m-1485 -79 c16 -25 16 -27
-2 -40 -30 -22 -63 -17 -82 12 -16 25 -16 27 2 40 30 22 63 17 82 -12z m1588
12 c18 -13 18 -15 2 -40 -19 -29 -51 -33 -81 -11 -18 13 -18 16 -2 40 18 28
52 33 81 11z m-1451 -39 c11 -30 2 -53 -27 -71 -13 -8 -20 -6 -31 9 -20 26
-20 54 1 77 22 25 45 19 57 -15z m1288 16 c21 -19 23 -52 4 -78 -16 -23 -42
-14 -58 19 -9 20 -8 30 6 51 19 30 24 30 48 8z m-692 -103 l0 -110 -25 0 c-15
0 -38 6 -53 14 -32 16 -162 149 -162 165 0 6 10 13 23 16 59 15 117 23 165 24
l52 1 0 -110z m250 87 l45 -14 -92 -92 c-81 -81 -95 -91 -127 -91 l-36 0 0
111 0 112 83 -6 c45 -3 102 -13 127 -20z m-466 -103 c63 -69 66 -75 40 -69
-42 10 -197 88 -201 102 -4 12 49 41 77 42 8 0 46 -34 84 -75z m611 57 l40
-18 -48 -31 c-54 -34 -177 -86 -185 -78 -8 9 121 144 138 145 8 0 33 -8 55
-18z m-925 -51 c0 -28 -32 -66 -48 -56 -5 3 -15 19 -22 36 -12 28 -11 33 10
55 22 23 25 24 42 8 10 -9 18 -28 18 -43z m1180 -1 c0 -9 -9 -27 -19 -40 -19
-23 -19 -24 -40 -5 -25 23 -27 63 -4 88 16 18 17 18 40 -4 13 -12 23 -29 23
-39z m-1314 30 c19 -21 18 -21 -5 -40 -30 -24 -42 -24 -75 2 -26 20 -26 22
-10 40 23 25 66 24 90 -2z m1458 2 c16 -18 16 -20 -10 -40 -33 -26 -42 -26
-74 -2 -24 19 -24 20 -6 40 24 26 67 27 90 2z m-1265 -65 c24 -26 23 -54 -5
-77 -13 -10 -19 -8 -41 13 -24 25 -24 26 -9 57 20 37 26 38 55 7z m1037 -1
c33 -50 -21 -111 -58 -66 -23 29 -23 32 3 65 26 32 34 33 55 1z m-1160 -16
c19 -21 18 -21 -5 -40 -29 -23 -49 -24 -73 -2 -23 20 -23 32 0 49 25 20 56 17
78 -7z m1309 1 c17 -19 17 -21 0 -40 -23 -25 -46 -25 -76 -1 -23 19 -24 19 -5
40 24 26 58 27 81 1z m-1237 -66 c12 -8 22 -21 22 -29 0 -15 -37 -45 -56 -45
-7 0 -22 9 -35 20 l-24 20 28 25 c33 29 36 30 65 9z m1162 -20 c13 -14 11 -19
-9 -35 -30 -25 -46 -24 -71 3 -26 28 -25 35 7 52 29 15 49 10 73 -20z m-305
-74 c3 -5 -5 -15 -20 -22 -32 -14 -27 -34 9 -30 32 3 34 -10 4 -30 -30 -20
-15 -41 23 -33 36 8 40 -11 5 -25 -52 -19 -57 -17 -77 35 -33 86 -33 83 3 99
41 18 45 18 53 6z m-621 -22 c14 -23 2 -32 -22 -17 -25 16 -50 6 -62 -26 -13
-34 -3 -55 26 -55 15 0 24 -6 24 -15 0 -20 -39 -19 -68 1 -29 20 -29 72 -1
108 17 22 28 26 57 24 19 -2 40 -10 46 -20z m112 -29 c24 -19 18 -86 -11 -114
-28 -29 -45 -31 -85 -10 -25 13 -30 22 -30 54 0 24 8 48 22 66 18 23 26 26 55
22 19 -4 41 -11 49 -18z m422 4 c2 -9 -8 -13 -32 -13 -29 0 -39 -5 -48 -25 -9
-19 -8 -29 6 -50 20 -31 56 -34 56 -5 0 13 -7 20 -20 20 -31 0 -24 18 11 25
37 8 36 9 44 -36 6 -31 4 -36 -20 -47 -39 -18 -63 -15 -90 13 -51 50 -13 140
57 133 17 -2 33 -9 36 -15z m-359 -65 c-4 -59 -3 -63 19 -66 12 -2 22 -10 22
-19 0 -11 -6 -14 -22 -9 -13 3 -31 6 -40 6 -14 0 -18 8 -18 38 0 65 12 112 27
112 12 0 14 -13 12 -62z m229 50 c-3 -7 -17 -14 -32 -16 -32 -4 -30 -24 3 -32
29 -7 32 -24 4 -28 -15 -2 -23 -10 -23 -24 0 -17 4 -20 30 -14 21 4 30 2 30
-8 0 -15 -70 -30 -81 -18 -4 4 -10 37 -14 74 l-7 66 28 5 c55 8 66 7 62 -5z
m-138 -58 c0 -58 1 -60 26 -60 16 0 24 -5 22 -12 -3 -8 -21 -13 -44 -13 l-39
0 -3 73 c-3 67 -1 72 18 72 18 0 20 -6 20 -60z"/>
<path d="M1271 2010 c-19 -11 -9 -45 14 -45 13 0 21 8 23 21 3 23 -17 37 -37
24z"/>
<path d="M730 1915 c0 -9 5 -15 11 -13 6 2 11 8 11 13 0 5 -5 11 -11 13 -6 2
-11 -4 -11 -13z"/>
<path d="M337 1503 c-13 -12 -7 -44 8 -49 24 -10 47 14 34 37 -10 19 -30 25
-42 12z"/>
<path d="M290 1365 c-10 -12 -10 -18 0 -30 16 -19 39 -19 46 0 6 15 -11 45
-26 45 -4 0 -13 -7 -20 -15z"/>
<path d="M2016 1283 c-11 -11 -6 -23 9 -23 8 0 15 4 15 9 0 13 -16 22 -24 14z"/>
<path d="M740 1119 c0 -5 5 -7 10 -4 6 3 10 8 10 11 0 2 -4 4 -10 4 -5 0 -10
-5 -10 -11z"/>
<path d="M720 1056 c0 -9 7 -16 16 -16 17 0 14 22 -4 28 -7 2 -12 -3 -12 -12z"/>
<path d="M920 1115 c0 -8 9 -15 20 -15 11 0 20 7 20 15 0 8 -9 15 -20 15 -11
0 -20 -7 -20 -15z"/>
<path d="M920 1054 c0 -10 7 -14 22 -12 32 5 35 28 4 28 -17 0 -26 -5 -26 -16z"/>
<path d="M325 860 c-3 -5 -1 -10 4 -10 6 0 11 5 11 10 0 6 -2 10 -4 10 -3 0
-8 -4 -11 -10z"/>
<path d="M869 263 c-13 -34 -9 -53 14 -67 34 -21 74 53 45 82 -20 20 -48 14
-59 -15z"/>
</g>
</svg>
